<svg xmlns="http://www.w3.org/2000/svg" viewBox="0 0 50 50" width="50" height="50"><path d="M14 3.99c-5.51 0-10 4.49-10 10v22c0 5.51 4.49 10 10 10h22c5.51 0 10-4.49 10-10v-22c0-5.51-4.49-10-10-10H14zm4 8.04c.63.03 1.21.38 1.56.93l1.8 2.83c.74 1.14.79 2.61.14 3.8l-1.47 2.08a2 2 0 0 0-.2 1.93 12.4 12.4 0 0 0 6.57 6.58 2 2 0 0 0 1.93-.21l2.08-1.47a3.75 3.75 0 0 1 3.8.13l2.83 1.81c.55.35.9.93.93 1.55.15 3.57-2.61 5.01-3.41 5.01-.56 0-7.24.76-14.78-6.78C12.24 22.68 13 16 13 15.44c0-.8 1.44-3.56 5-3.4z"/></svg>