<svg xmlns="http://www.w3.org/2000/svg" viewBox="0 0 1000 1000" xml:space="preserve"><path d="M467.02 10.26c-3.89.41-15.96 1.84-26.59 3.07-67.71 7.77-144.22 34.78-203.34 72.21-57.69 36.62-115.17 94.1-151.79 151.79-17.39 27.62-40.5 76.31-50.73 107.2C17.16 397.52 9.8 442.73 10 500.01c0 79.37 15.34 145.66 49.92 215.82 48.48 98.81 124.18 174.7 221.96 222.98 34.37 16.98 60.55 27 90.22 34.78 73.24 19.02 145.04 21.68 217.67 8.39C788.4 945.16 944.9 788.66 981.72 590.02c13.3-72.62 10.64-144.43-8.39-217.66-7.77-29.66-17.8-55.85-34.78-90.22-71.8-145.66-209.28-244.67-372.32-268.19-20.25-2.87-85.3-5.32-99.21-3.69zM331.39 184.97c4.91 1.23 14.93 2.86 22.3 3.89 17.18 2.46 23.73 8.18 29.25 25.57 8.18 24.96 33.75 125.2 34.57 135.22.61 9.41 0 11.46-7.57 22.5-4.5 6.75-16.16 19.23-26.19 27.62-30.48 26.19-29.87 25.57-28.64 35.19.61 4.7 6.55 19.64 13.3 33.34 38.46 78.35 85.1 130.72 157.93 177.36 30.28 19.02 34.78 19.64 52.37 4.71 6.55-5.52 22.71-20.46 35.6-32.94 13.91-13.3 25.98-23.32 29.46-24.14 4.3-1.02 9 .21 18.41 4.5 15.75 7.36 122.95 78.96 127.04 84.9 4.29 6.34 3.89 16.77-2.05 37.03-11.46 39.48-26.18 58.1-59.74 75.49-28.64 14.73-48.89 19.84-82.24 20.46-27 .41-28.43.21-48.28-6.75-23.32-7.98-91.85-41.94-123.77-61.17-74.87-45.42-142.79-118.65-195.78-210.91-17.18-30.07-42.75-81.42-51.14-102.9-32.12-83.47-22.5-159.36 27.21-212.14 30.7-32.54 52.38-42.76 77.96-36.83z"/></svg>