<svg fill="none" height="2500" width="2500" xmlns="http://www.w3.org/2000/svg" viewBox="0 0 500 500"><path d="M250 500c138.07 0 250-111.93 250-250S388.07 0 250 0 0 111.93 0 250s111.93 250 250 250z" fill="black"/><path d="M104.05 247.83s125-51.3 168.35-69.36c16.62-7.23 72.98-30.35 72.98-30.35s26-10.11 23.84 14.45c-.72 10.12-6.5 45.52-12.28 83.82-8.67 54.19-18.07 113.44-18.07 113.44s-1.44 16.61-13.73 19.5-32.51-10.11-36.12-13c-2.9-2.17-54.2-34.68-72.98-50.58-5.06-4.33-10.84-13 .72-23.12 26.01-23.84 57.08-53.47 75.87-72.25 8.67-8.68 17.34-28.9-18.79-4.34-51.3 35.4-101.87 68.64-101.87 68.64s-11.57 7.23-33.24.72c-21.68-6.5-46.97-15.17-46.97-15.17s-17.34-10.84 12.29-22.4z" fill="#FFFFFF"/></svg>
