<svg width="48" height="48" viewBox="0 0 48 48" fill="none" xmlns="http://www.w3.org/2000/svg"><path fill-rule="evenodd" clip-rule="evenodd" d="M3.37 3.37C0 6.75 0 12.17 0 23.04v1.92c0 10.86 0 16.3 3.37 19.67C6.75 48 12.17 48 23.04 48h1.92c10.86 0 16.3 0 19.67-3.37C48 41.25 48 35.83 48 24.96v-1.92c0-10.86 0-16.3-3.37-19.67C41.25 0 35.83 0 24.96 0h-1.92C12.18 0 6.74 0 3.37 3.37ZM8.1 14.6c.26 12.48 6.5 19.98 17.44 19.98h.62v-7.14c4.02.4 7.06 3.34 8.28 7.14h5.68a15.79 15.79 0 0 0-8.22-10.02c2.56-1.48 6.16-5.08 7.02-9.96h-5.16c-1.12 3.96-4.44 7.56-7.6 7.9v-7.9H21v13.84c-3.2-.8-7.24-4.68-7.42-13.84H8.1Z" fill="#000"/></svg>